<?xml version="1.0" encoding="utf-8"?>
<!-- Generator: Adobe Illustrator 16.0.0, SVG Export Plug-In . SVG Version: 6.00 Build 0)  -->
<!DOCTYPE svg PUBLIC "-//W3C//DTD SVG 1.1//EN" "http://www.w3.org/Graphics/SVG/1.1/DTD/svg11.dtd">
<svg version="1.1" id="Layer_1" xmlns="http://www.w3.org/2000/svg" xmlns:xlink="http://www.w3.org/1999/xlink" x="0px" y="0px"
	 width="171px" height="171px" viewBox="0 0 171 171" enable-background="new 0 0 171 171" xml:space="preserve">
<g>
	<g>
		<path fill="#FFFFFF" d="M77.149,33.611c-11.011-0.5-20.021-13.011-35.537-4.253c-15.516,8.758-14.766,39.04-9.761,64.815
			c5.005,25.775,17.519,50.55,24.276,50.55c6.758,0,10.511-32.281,19.27-31.781s9.511,32.783,24.024,31.781
			c14.513-0.999,11.512-19.771,23.022-39.039c11.51-19.268,20.27-68.068,4.757-76.326C111.684,21.1,88.158,34.112,77.149,33.611z"/>
	</g>
	<g>
		<g>
			<path fill="#EDEDED" d="M127.201,29.358c-0.784-0.417-1.585-0.774-2.4-1.085c1.229,7.19,3.892,27.593-0.521,50.469
				c-5.506,28.527-16.352,50.552-25.692,52.887c-5.217,1.303-10.744-2.229-14.609-5.605c3.363,9.013,7.164,19.271,15.444,18.7
				c14.513-0.999,11.512-19.771,23.022-39.039C133.954,86.416,142.714,37.616,127.201,29.358z"/>
		</g>
		<g>
			<path fill="#EDEDED" d="M73.392,113.417c-0.712-0.89-1.771-1.437-3.334-1.31c-6.173,0.5-11.678,14.183-16.85,14.683
				c-5.171,0.498-8.343-8.342-12.68-14.85c-1.677-2.516-3.427-3.081-4.945-2.837c5.982,19.641,15.118,35.619,20.544,35.619
				C62.346,144.723,66.021,117.388,73.392,113.417z"/>
		</g>
	</g>
	<path fill="#FFFFFF" d="M162.71,44.467c0-4.065-3.293-7.359-7.358-7.359s-7.36,3.294-7.36,7.359c0,1.778,0.629,3.408,1.678,4.68
		c-1.205,2.888-2.491,5.655-4.244,8.396c-2.029,3.165-4.196,6.668-7.078,9.127c-4.88,4.155-12.094,6.791-18.274,8.117
		c-4.733,1.012-2.726,8.251,1.995,7.239c7.655-1.64,15.473-5.137,21.586-10.046c3.386-2.724,5.898-7.057,8.254-10.649
		c2.029-3.095,3.453-6.314,4.805-9.635C160.124,51.056,162.71,48.067,162.71,44.467z"/>
	<path fill="#FFFFFF" d="M33.188,94.404c-1.536,0-2.962,0.472-4.141,1.276c-2.404-2.128-4.881-4.164-7.645-5.835
		c-1.484-0.896-3.036-1.661-4.483-2.622c-0.361-0.238-0.794-0.574-1.051-0.928c-0.051-0.106-0.092-0.187-0.129-0.254
		c0.034-0.169,0.136-0.284,0.299-0.549c1.705-2.757,5.604-4.322,8.462-5.479c3.503-1.417,7.113-2.531,10.581-4.037
		c1.879-0.814,2.287-3.53,1.347-5.137c-1.124-1.92-3.258-2.16-5.135-1.346C23.953,72.68,12.581,74.513,9,82.781
		c-2.182,5.037,0.988,8.987,5.135,11.572c2.123,1.319,4.329,2.421,6.365,3.894c1.929,1.396,3.682,3.056,5.43,4.691
		c0.563,3.505,3.593,6.186,7.258,6.186c4.063,0,7.36-3.296,7.36-7.362C40.548,97.698,37.251,94.404,33.188,94.404z"/>
	<g>
		<path fill="#E59C9E" d="M64.672,85.502h20.566c0,0-1.883,8.172-10.283,8.172S64.672,85.502,64.672,85.502z"/>
	</g>
	<g>
		<g>
			<ellipse fill="#706F6F" cx="57.601" cy="67.645" rx="3.991" ry="5.678"/>
			<circle fill="#FFFFFF" cx="58.522" cy="65.318" r="1.965"/>
		</g>
		<g>
			<ellipse fill="#706F6F" cx="92.308" cy="67.645" rx="3.991" ry="5.678"/>
			<circle fill="#FFFFFF" cx="93.231" cy="65.318" r="1.966"/>
		</g>
	</g>
</g>
</svg>
