<?xml version="1.0" encoding="utf-8"?>
<!-- Generator: Adobe Illustrator 16.0.0, SVG Export Plug-In . SVG Version: 6.00 Build 0)  -->
<!DOCTYPE svg PUBLIC "-//W3C//DTD SVG 1.1//EN" "http://www.w3.org/Graphics/SVG/1.1/DTD/svg11.dtd">
<svg version="1.1" id="Layer_1" xmlns="http://www.w3.org/2000/svg" xmlns:xlink="http://www.w3.org/1999/xlink" x="0px" y="0px"
	 width="165px" height="68px" viewBox="0 0 165 68" enable-background="new 0 0 165 68" xml:space="preserve">
<g>
	<line opacity="0.7" fill="none" stroke="#277DAF" stroke-miterlimit="10" x1="66.879" y1="6.969" x2="66.879" y2="61.03"/>
	<g>
		<g opacity="0.7">
			<path fill="#39B996" d="M74.555,17.96c-0.181,0-0.336-0.063-0.465-0.189s-0.193-0.278-0.193-0.456
				c0-0.177,0.064-0.329,0.193-0.456s0.284-0.189,0.465-0.189h8.558c0.182,0,0.336,0.063,0.465,0.189s0.193,0.278,0.193,0.456
				c0,0.178-0.064,0.33-0.193,0.456s-0.283,0.189-0.465,0.189h-3.621v10.972c0,0.178-0.064,0.33-0.193,0.456
				s-0.284,0.189-0.465,0.189s-0.336-0.063-0.465-0.189s-0.193-0.278-0.193-0.456V17.96H74.555z"/>
			<path fill="#39B996" d="M85.492,17.315c0-0.177,0.064-0.329,0.193-0.456s0.285-0.189,0.465-0.189
				c0.182,0,0.336,0.063,0.465,0.189s0.193,0.278,0.193,0.456v4.397c0.824-0.78,1.811-1.169,2.963-1.169
				c1.18,0,2.188,0.41,3.025,1.23c0.836,0.82,1.254,1.809,1.254,2.965v4.195c0,0.178-0.064,0.33-0.193,0.456
				s-0.283,0.189-0.465,0.189s-0.336-0.063-0.465-0.189s-0.193-0.278-0.193-0.456v-4.195c0-0.801-0.289-1.485-0.867-2.053
				c-0.58-0.567-1.277-0.851-2.096-0.851c-0.816,0-1.516,0.284-2.094,0.851c-0.578,0.568-0.869,1.252-0.869,2.053v4.195
				c0,0.178-0.064,0.33-0.193,0.456s-0.283,0.189-0.465,0.189c-0.18,0-0.336-0.063-0.465-0.189s-0.193-0.278-0.193-0.456V17.315z"/>
			<path fill="#39B996" d="M102.914,27.384c0.182,0,0.336,0.063,0.465,0.189s0.195,0.278,0.195,0.456
				c0,0.177-0.064,0.331-0.189,0.459c-0.852,0.726-1.852,1.089-3.004,1.089c-1.273,0-2.359-0.441-3.26-1.323
				c-0.898-0.882-1.35-1.947-1.35-3.195c0-1.248,0.451-2.313,1.35-3.195c0.9-0.882,1.986-1.323,3.26-1.323
				c1.271,0,2.359,0.441,3.258,1.323c0.9,0.882,1.35,1.947,1.35,3.195c0,0.178-0.064,0.33-0.193,0.456s-0.283,0.189-0.465,0.189
				h-7.184c0.121,0.619,0.422,1.165,0.904,1.638c0.643,0.629,1.418,0.944,2.33,0.944c0.822,0,1.529-0.255,2.123-0.766
				C102.625,27.43,102.762,27.384,102.914,27.384z M103.615,24.415c-0.121-0.618-0.424-1.164-0.906-1.638
				c-0.643-0.629-1.418-0.944-2.328-0.944c-0.912,0-1.688,0.315-2.33,0.944c-0.482,0.474-0.783,1.02-0.904,1.638H103.615z"/>
			<path fill="#39B996" d="M115.926,25.06c0,1.248-0.449,2.313-1.35,3.195c-0.898,0.882-1.986,1.323-3.258,1.323
				c-1.273,0-2.359-0.441-3.26-1.323c-0.898-0.882-1.35-1.947-1.35-3.195c0-1.248,0.451-2.313,1.35-3.195
				c0.9-0.882,1.986-1.323,3.26-1.323c1.271,0,2.359,0.441,3.258,1.323C115.477,22.748,115.926,23.813,115.926,25.06z
				 M111.318,21.833c-0.912,0-1.688,0.315-2.33,0.944c-0.641,0.629-0.963,1.391-0.963,2.283c0,0.893,0.322,1.654,0.963,2.283
				c0.643,0.629,1.418,0.944,2.33,0.944c0.91,0,1.686-0.314,2.328-0.944s0.963-1.39,0.963-2.283c0-0.893-0.32-1.654-0.963-2.283
				C113.004,22.148,112.229,21.833,111.318,21.833z"/>
			<path fill="#39B996" d="M122.256,28.287c0.18,0,0.336,0.063,0.465,0.19s0.193,0.278,0.193,0.456c0,0.178-0.064,0.33-0.193,0.456
				s-0.285,0.189-0.465,0.189c-2.195,0-3.293-1.076-3.293-3.227v-4.518h-0.658c-0.18,0-0.336-0.063-0.465-0.189
				s-0.193-0.278-0.193-0.456c0-0.177,0.064-0.329,0.193-0.456s0.285-0.189,0.465-0.189h0.658v-3.228
				c0-0.177,0.064-0.329,0.193-0.456s0.285-0.189,0.467-0.189c0.18,0,0.336,0.063,0.465,0.189s0.193,0.278,0.193,0.456v3.228h1.324
				c0.182,0,0.336,0.063,0.465,0.189s0.193,0.278,0.193,0.456c0,0.178-0.064,0.33-0.193,0.456s-0.283,0.189-0.465,0.189h-1.324
				v4.518C120.281,27.642,120.939,28.287,122.256,28.287z"/>
			<path fill="#39B996" d="M133.367,25.06c0,1.248-0.451,2.313-1.35,3.195c-0.9,0.882-1.986,1.323-3.26,1.323
				c-1.271,0-2.359-0.441-3.258-1.323c-0.9-0.882-1.35-1.947-1.35-3.195c0-1.248,0.449-2.313,1.35-3.195
				c0.898-0.882,1.986-1.323,3.258-1.323c1.273,0,2.359,0.441,3.26,1.323C132.916,22.748,133.367,23.813,133.367,25.06z
				 M128.758,21.833c-0.91,0-1.686,0.315-2.328,0.944c-0.643,0.629-0.963,1.391-0.963,2.283c0,0.893,0.32,1.654,0.963,2.283
				s1.418,0.944,2.328,0.944s1.688-0.314,2.33-0.944c0.641-0.629,0.963-1.39,0.963-2.283c0-0.893-0.322-1.654-0.963-2.283
				C130.445,22.148,129.668,21.833,128.758,21.833z"/>
			<path fill="#39B996" d="M135.088,21.188c0-0.177,0.064-0.329,0.193-0.456s0.283-0.189,0.465-0.189s0.336,0.063,0.465,0.189
				s0.193,0.278,0.193,0.456v0.524c0.822-0.78,1.811-1.169,2.963-1.169c1.18,0,2.188,0.41,3.023,1.23
				c0.836,0.82,1.256,1.809,1.256,2.965v4.195c0,0.178-0.064,0.33-0.193,0.456s-0.285,0.189-0.465,0.189
				c-0.182,0-0.338-0.063-0.465-0.189c-0.131-0.126-0.193-0.278-0.193-0.456v-4.195c0-0.801-0.291-1.485-0.869-2.053
				c-0.578-0.567-1.277-0.851-2.094-0.851c-0.818,0-1.516,0.284-2.096,0.851c-0.578,0.568-0.867,1.252-0.867,2.053v4.195
				c0,0.178-0.064,0.33-0.193,0.456s-0.283,0.189-0.465,0.189s-0.336-0.063-0.465-0.189s-0.193-0.278-0.193-0.456V21.188z"/>
			<path fill="#39B996" d="M147.506,18.606c0,0.221-0.08,0.41-0.242,0.569s-0.355,0.238-0.58,0.238s-0.418-0.079-0.58-0.238
				s-0.242-0.348-0.242-0.569c0-0.22,0.08-0.41,0.242-0.569s0.355-0.238,0.58-0.238s0.418,0.079,0.58,0.238
				S147.506,18.386,147.506,18.606z M146.025,21.188c0-0.177,0.064-0.329,0.193-0.456s0.283-0.189,0.465-0.189
				s0.336,0.063,0.465,0.189s0.193,0.278,0.193,0.456v7.745c0,0.178-0.064,0.33-0.193,0.456s-0.283,0.189-0.465,0.189
				s-0.336-0.063-0.465-0.189s-0.193-0.278-0.193-0.456V21.188z"/>
			<path fill="#39B996" d="M158.938,25.06c0,1.248-0.449,2.313-1.35,3.195c-0.898,0.882-1.986,1.323-3.258,1.323
				c-1.273,0-2.359-0.441-3.26-1.323c-0.898-0.882-1.35-1.947-1.35-3.195c0-1.248,0.451-2.313,1.35-3.195
				c0.9-0.882,1.986-1.323,3.26-1.323c1.271,0,2.359,0.441,3.258,1.323C158.488,22.748,158.938,23.813,158.938,25.06z
				 M154.33,21.833c-0.912,0-1.688,0.315-2.33,0.944c-0.641,0.629-0.963,1.391-0.963,2.283c0,0.893,0.322,1.654,0.963,2.283
				c0.643,0.629,1.418,0.944,2.33,0.944c0.91,0,1.686-0.314,2.328-0.944s0.963-1.39,0.963-2.283c0-0.893-0.32-1.654-0.963-2.283
				C156.016,22.148,155.24,21.833,154.33,21.833z"/>
			<path fill="#39B996" d="M78.283,42.443l2.913,2.863l1.457-1.523c0.126-0.125,0.28-0.186,0.461-0.186
				c0.182,0,0.336,0.063,0.465,0.189c0.129,0.125,0.193,0.277,0.193,0.455c0,0.168-0.055,0.313-0.164,0.436l-1.482,1.541
				l2.125,2.105c0.119,0.119,0.18,0.264,0.18,0.436c0,0.178-0.064,0.33-0.193,0.457c-0.129,0.125-0.283,0.189-0.465,0.189
				c-0.176,0-0.328-0.061-0.461-0.178l-2.09-2.057l-1.144,1.193c-0.708,0.693-1.561,1.041-2.559,1.041
				c-0.999,0-1.852-0.348-2.56-1.041c-0.708-0.693-1.062-1.584-1.062-2.67c0-0.98,0.519-1.869,1.556-2.672l0.872-0.668l-0.905-0.896
				c-0.576-0.57-0.864-1.256-0.864-2.057c0-0.803,0.289-1.486,0.868-2.054c0.579-0.567,1.276-0.851,2.094-0.851
				c0.817,0,1.515,0.283,2.094,0.851c0.579,0.567,0.868,1.251,0.868,2.054c0,0.855-0.4,1.621-1.202,2.299L78.283,42.443z
				 M80.291,46.252l-3.061-3.01l-0.93,0.693c-0.724,0.549-1.086,1.135-1.086,1.76c0,0.73,0.225,1.316,0.675,1.758
				c0.45,0.441,0.993,0.662,1.629,0.662c0.636,0,1.179-0.221,1.629-0.662L80.291,46.252z M76.349,40.539l1.021,1.008l0.979-0.758
				c0.543-0.424,0.814-0.887,0.814-1.387c0-0.447-0.16-0.828-0.481-1.143c-0.321-0.314-0.709-0.471-1.164-0.471
				c-0.456,0-0.844,0.156-1.165,0.471s-0.481,0.695-0.481,1.143C75.872,39.848,76.031,40.227,76.349,40.539z"/>
			<path fill="#39B996" d="M94.785,36.498c1.814,0,3.367,0.63,4.652,1.891c1.287,1.262,1.93,2.783,1.93,4.563
				c0,1.781-0.643,3.301-1.93,4.563c-1.285,1.262-2.838,1.893-4.652,1.893H92.15c-0.18,0-0.336-0.064-0.465-0.189
				c-0.129-0.127-0.193-0.279-0.193-0.457V37.143c0-0.178,0.064-0.329,0.193-0.455c0.129-0.127,0.285-0.189,0.465-0.189H94.785z
				 M94.785,48.115c1.453,0,2.693-0.504,3.723-1.514c1.029-1.008,1.543-2.225,1.543-3.65s-0.514-2.643-1.543-3.65
				s-2.27-1.512-3.723-1.512h-1.977v10.326H94.785z"/>
			<path fill="#39B996" d="M111.646,48.76c0,0.178-0.064,0.33-0.193,0.457c-0.129,0.125-0.283,0.189-0.465,0.189
				s-0.336-0.064-0.465-0.189c-0.129-0.127-0.193-0.279-0.193-0.457v-0.523c-0.822,0.779-1.811,1.17-2.963,1.17
				c-1.18,0-2.188-0.41-3.023-1.23c-0.838-0.82-1.256-1.809-1.256-2.965v-4.195c0-0.178,0.064-0.33,0.193-0.457
				c0.129-0.125,0.285-0.189,0.465-0.189c0.182,0,0.336,0.064,0.465,0.189c0.129,0.127,0.193,0.279,0.193,0.457v4.195
				c0,0.801,0.291,1.486,0.869,2.053c0.578,0.568,1.277,0.852,2.094,0.852c0.818,0,1.516-0.283,2.096-0.852
				c0.578-0.566,0.867-1.252,0.867-2.053v-4.195c0-0.178,0.064-0.33,0.193-0.457c0.129-0.125,0.283-0.189,0.465-0.189
				s0.336,0.064,0.465,0.189c0.129,0.127,0.193,0.279,0.193,0.457V48.76z"/>
			<path fill="#39B996" d="M117.977,48.115c0.18,0,0.336,0.063,0.465,0.189s0.193,0.277,0.193,0.455s-0.064,0.33-0.193,0.457
				c-0.129,0.125-0.285,0.189-0.465,0.189c-2.195,0-3.293-1.076-3.293-3.229V41.66h-0.658c-0.18,0-0.336-0.063-0.465-0.189
				c-0.129-0.125-0.193-0.277-0.193-0.455s0.064-0.33,0.193-0.457c0.129-0.125,0.285-0.189,0.465-0.189h0.658v-3.227
				c0-0.178,0.064-0.329,0.193-0.455c0.129-0.127,0.285-0.189,0.467-0.189c0.18,0,0.336,0.063,0.465,0.189
				c0.129,0.126,0.193,0.277,0.193,0.455v3.227h1.324c0.182,0,0.336,0.064,0.465,0.189c0.129,0.127,0.193,0.279,0.193,0.457
				s-0.064,0.33-0.193,0.455c-0.129,0.127-0.283,0.189-0.465,0.189h-1.324v4.518C116.002,47.469,116.66,48.115,117.977,48.115z"/>
			<path fill="#39B996" d="M120.355,41.016c0-0.178,0.064-0.33,0.193-0.457c0.129-0.125,0.285-0.189,0.465-0.189
				c0.182,0,0.336,0.064,0.465,0.189c0.129,0.127,0.193,0.279,0.193,0.457v0.709c0.922-0.902,2.02-1.355,3.293-1.355
				c0.641,0,1.23,0.109,1.77,0.324c0.098,0.037,0.189,0.094,0.271,0.168c0.125,0.129,0.189,0.283,0.189,0.461
				s-0.064,0.33-0.193,0.455c-0.129,0.127-0.285,0.189-0.467,0.189c-0.104,0-0.199-0.021-0.287-0.064
				c-0.389-0.16-0.818-0.242-1.283-0.242c-0.912,0-1.688,0.314-2.33,0.945c-0.641,0.629-0.963,1.389-0.963,2.283v3.871
				c0,0.178-0.064,0.33-0.193,0.457c-0.129,0.125-0.283,0.189-0.465,0.189c-0.18,0-0.336-0.064-0.465-0.189
				c-0.129-0.127-0.193-0.279-0.193-0.457V41.016z"/>
			<path fill="#39B996" d="M136.561,48.051c-0.922,0.902-2.02,1.355-3.291,1.355c-1.273,0-2.359-0.441-3.26-1.324
				c-0.898-0.881-1.35-1.947-1.35-3.193c0-1.248,0.451-2.314,1.35-3.195c0.9-0.883,1.986-1.324,3.26-1.324
				c1.271,0,2.359,0.441,3.258,1.324c0.9,0.881,1.35,1.947,1.35,3.195v3.871c0,0.178-0.064,0.33-0.193,0.457
				c-0.129,0.125-0.283,0.189-0.465,0.189s-0.336-0.064-0.465-0.189c-0.129-0.127-0.193-0.279-0.193-0.457V48.051z M133.27,41.66
				c-0.912,0-1.688,0.314-2.33,0.945c-0.641,0.629-0.963,1.389-0.963,2.283c0,0.893,0.322,1.652,0.963,2.283
				c0.643,0.629,1.418,0.943,2.33,0.943c0.91,0,1.686-0.314,2.328-0.943c0.643-0.631,0.963-1.391,0.963-2.283
				c0-0.895-0.32-1.654-0.963-2.283C134.955,41.975,134.18,41.66,133.27,41.66z"/>
		</g>
	</g>
	<g>
		<path opacity="0.7" fill="#39B996" d="M5.001,15.882c0,0-0.666-20.296,22.625-5.656c0,0,24.22,13.78,15.305,20.628
			C42.931,30.854,6.998,53.147,5.001,15.882z"/>
		<path opacity="0.7" fill="#3E8BCA" d="M24.353,57.471c0,0,1.479-11.837,11.023-20.002c0,0,17.324-15.125-12.8-16.274
			c0,0-16.991-2.216-13.221,18.007c0.353,1.894,0.889,3.984,1.638,6.294C19.735,72.445,23.89,61.438,24.353,57.471z"/>
		<path opacity="0.7" fill="#0680C4" d="M57.238,14.219c0,0-5.656-9.648-15.97-2.662c0,0-6.203,4.166-17.967,4.658
			c0,0-23.29,1.664,2.995,15.638c0,0,20.628,10.315,30.943-3.327C57.238,28.526,62.229,21.207,57.238,14.219z"/>
		<path opacity="0.7" fill="#105E9C" d="M48.588,57.471c0,0,21.725-27.975-1.997-39.925c0,0-27.488-11.594-12.634,12.311
			c0,0,7.741,10.62,8.51,25.62C42.467,55.477,43.616,64.267,48.588,57.471z"/>
	</g>
</g>
</svg>
