<?xml version="1.0" encoding="utf-8"?>
<!-- Generator: Adobe Illustrator 16.0.0, SVG Export Plug-In . SVG Version: 6.00 Build 0)  -->
<!DOCTYPE svg PUBLIC "-//W3C//DTD SVG 1.1//EN" "http://www.w3.org/Graphics/SVG/1.1/DTD/svg11.dtd">
<svg version="1.1" id="Layer_1" xmlns="http://www.w3.org/2000/svg" xmlns:xlink="http://www.w3.org/1999/xlink" x="0px" y="0px"
	 width="56.5px" height="56.5px" viewBox="0 0 56.5 56.5" enable-background="new 0 0 56.5 56.5" xml:space="preserve">
<g>
	<path fill="#18A9FA" d="M27.915,25.295c8.769,0,24.185-2.049,26.378-2.356c-1.219-0.395-3.904-1.349-6.807-2.945
		c-3.945-2.171-7.498-4.144-11.641-3.947c-3.855,0.184-7.025,2.758-7.449,3.115c-0.423-0.357-3.594-2.931-7.449-3.115
		c-4.144-0.197-7.696,1.776-11.642,3.947c-3.162,1.739-6.068,2.716-7.099,3.038C5.032,23.421,19.147,25.295,27.915,25.295z"/>
	<path fill="#18A9FA" d="M52.428,24.335c-1.664,0.669-9.023,3.584-14.428,4.968c-2.756,0.703-6.203,1.546-9.705,1.566
		c-3.705,0.02-7.468-0.822-10.384-1.566c-4.98-1.274-11.625-3.852-13.939-4.772c0.385,0.579,6.444,15.935,24.35,15.935
		c17.904,0,24.542-15.999,24.542-15.999S52.709,24.424,52.428,24.335z"/>
</g>
</svg>
