<?xml version="1.0" encoding="utf-8"?>
<!-- Generator: Adobe Illustrator 16.0.0, SVG Export Plug-In . SVG Version: 6.00 Build 0)  -->
<!DOCTYPE svg PUBLIC "-//W3C//DTD SVG 1.1//EN" "http://www.w3.org/Graphics/SVG/1.1/DTD/svg11.dtd">
<svg version="1.1" id="Layer_1" xmlns="http://www.w3.org/2000/svg" xmlns:xlink="http://www.w3.org/1999/xlink" x="0px" y="0px"
	 width="56.5px" height="56.5px" viewBox="0 0 56.5 56.5" enable-background="new 0 0 56.5 56.5" xml:space="preserve">
<g>
	<path fill-rule="evenodd" clip-rule="evenodd" fill="#18A9FA" d="M4.75,26.379c12.223,0,24.446-0.009,36.668,0.01
		c1.838,0.003,3.542,0.602,5.118,1.531c1.739,1.027,3.065,2.473,4.009,4.246c0.584,1.098,1,2.271,1.114,3.529
		c0.006,0.064,0.022,0.118,0.091,0.14c0,0.918,0,1.836,0,2.754c-0.183,0.517-0.197,1.068-0.356,1.594
		c-0.425,1.41-1.065,2.692-1.996,3.839c-1.063,1.314-2.359,2.327-3.879,3.042c-1.115,0.523-2.295,0.839-3.526,0.988
		c-1.507,0.181-2.973,0.067-4.426-0.37c-1.195-0.358-2.266-0.938-3.243-1.696c-1.409-1.093-2.433-2.498-3.186-4.104
		c-0.264-0.564-0.489-1.131-0.419-1.793c0.104-1.003,1.203-1.826,2.228-1.548c0.765,0.208,1.175,0.733,1.443,1.404
		c0.728,1.813,1.91,3.2,3.73,3.968c1.002,0.421,2.035,0.599,3.157,0.484c1.48-0.152,2.818-0.62,3.974-1.513
		c1.515-1.171,2.458-2.708,2.743-4.643c0.307-2.079-0.249-3.917-1.537-5.514c-1.064-1.323-2.459-2.189-4.167-2.499
		c-0.734-0.134-1.469-0.18-2.212-0.18c-11.775,0.003-23.552,0.003-35.328,0.003C4.75,28.827,4.75,27.604,4.75,26.379z"/>
	<path fill-rule="evenodd" clip-rule="evenodd" fill="#18A9FA" d="M4.75,19.128c7.829,0,15.658-0.004,23.486,0.002
		c2.497,0.002,4.734-1.809,5.234-4.183c0.362-1.717,0.017-3.29-1.152-4.655c-1.179-1.379-2.68-2.032-4.464-1.889
		c-1.961,0.156-3.413,1.188-4.369,2.903c-0.261,0.467-0.424,0.992-0.894,1.317c-0.544,0.377-1.133,0.48-1.744,0.23
		c-0.621-0.255-1.028-0.716-1.134-1.402c-0.137-0.895,0.303-1.629,0.718-2.345c0.876-1.509,2.137-2.651,3.671-3.453
		c0.829-0.433,1.729-0.743,2.678-0.847c0.074-0.008,0.155,0.003,0.185-0.092c0.856,0,1.714,0,2.57,0
		c0.428,0.106,0.862,0.189,1.281,0.322c2.584,0.817,4.513,2.413,5.678,4.875c0.667,1.413,0.96,2.925,0.83,4.479
		c-0.154,1.857-0.788,3.546-1.965,5.026c-1.392,1.751-3.212,2.77-5.353,3.273c-0.363,0.085-0.75,0.104-1.125,0.104
		C20.838,22.8,12.794,22.8,4.75,22.8C4.75,21.575,4.75,20.352,4.75,19.128z"/>
	<path fill-rule="evenodd" clip-rule="evenodd" fill="#18A9FA" d="M4.75,33.631c4.389,0,8.778-0.013,13.167,0.006
		c1.766,0.007,3.335,0.65,4.774,1.642c1.192,0.821,2.11,1.897,2.767,3.168c0.537,1.037,0.854,2.15,0.978,3.337
		c0.133,1.273,0.003,2.502-0.396,3.688c-1.121,3.344-3.48,5.388-6.891,6.118c-1.889,0.402-3.801,0.17-5.57-0.659
		c-1.793-0.84-3.169-2.159-4.149-3.891c-0.581-1.026-0.192-2.223,0.737-2.664c0.845-0.401,1.93-0.236,2.566,0.898
		c0.901,1.609,2.309,2.513,4.095,2.745c1.493,0.193,2.853-0.27,4.017-1.248c1.031-0.869,1.702-1.973,1.869-3.302
		c0.197-1.583-0.149-3.052-1.251-4.286c-0.776-0.869-1.716-1.458-2.843-1.736c-0.349-0.086-0.704-0.15-1.07-0.15
		c-4.267,0.004-8.533,0.003-12.8,0.003C4.75,36.079,4.75,34.855,4.75,33.631z"/>
</g>
</svg>
