<?xml version="1.0" encoding="utf-8"?>
<!-- Generator: Adobe Illustrator 16.0.0, SVG Export Plug-In . SVG Version: 6.00 Build 0)  -->
<!DOCTYPE svg PUBLIC "-//W3C//DTD SVG 1.1//EN" "http://www.w3.org/Graphics/SVG/1.1/DTD/svg11.dtd">
<svg version="1.1" id="Layer_1" xmlns="http://www.w3.org/2000/svg" xmlns:xlink="http://www.w3.org/1999/xlink" x="0px" y="0px"
	 width="56.5px" height="56.5px" viewBox="0 0 56.5 56.5" enable-background="new 0 0 56.5 56.5" xml:space="preserve">
<g>
	<rect x="21.596" y="41.408" fill="#18A9FA" width="12.881" height="11.99"/>
	<polygon fill="#18A9FA" points="36.021,53.398 49.188,53.398 49.188,46.408 36.021,42.02 	"/>
	<path fill="#18A9FA" d="M54.562,22.008v-6.885H42.444v2.767h-7.167V6.68c0-0.474-0.385-0.859-0.859-0.859h-7.994
		c-0.348-1.557-1.735-2.719-3.396-2.719c-1.924,0-3.483,1.559-3.483,3.483c0,1.923,1.559,3.481,3.483,3.481
		c1.592,0,2.932-1.069,3.347-2.528h7.185v22.913h-5.982c-0.303,0-0.595,0.121-0.81,0.336l-1.861,1.86
		c-0.214,0.215-0.335,0.506-0.335,0.81v2.135h-1.123L5.891,17.059c-0.87-0.918-2.319-0.959-3.237-0.088
		c-0.918,0.869-0.957,2.319-0.087,3.237l18.913,19.963h13.388l14.648,4.751c0.235,0.076,0.473,0.112,0.707,0.112
		c0.966,0,1.864-0.615,2.178-1.584c0.391-1.203-0.269-2.494-1.472-2.885l-15.338-4.975h-8.729v-1.66l1.19-1.19h5.508v1.956h1.718
		v-1.956h1.794c0.633,0,1.146-0.513,1.146-1.146c0-0.631-0.513-1.145-1.146-1.145h-1.794V19.417h7.167v2.59H54.562z M43.655,16.283
		h9.731v4.771h-9.731V16.283z M23.028,9.018c-1.344,0-2.434-1.09-2.434-2.433c0-1.345,1.09-2.435,2.434-2.435
		c1.343,0,2.433,1.09,2.433,2.435C25.461,7.927,24.372,9.018,23.028,9.018z"/>
</g>
</svg>
