<?xml version="1.0" encoding="utf-8"?>
<!-- Generator: Adobe Illustrator 16.0.0, SVG Export Plug-In . SVG Version: 6.00 Build 0)  -->
<!DOCTYPE svg PUBLIC "-//W3C//DTD SVG 1.1//EN" "http://www.w3.org/Graphics/SVG/1.1/DTD/svg11.dtd">
<svg version="1.1" id="Layer_1" xmlns="http://www.w3.org/2000/svg" xmlns:xlink="http://www.w3.org/1999/xlink" x="0px" y="0px"
	 width="56.5px" height="56.5px" viewBox="0 0 56.5 56.5" enable-background="new 0 0 56.5 56.5" xml:space="preserve">
<g>
	<path fill="none" d="M28.269,9.634c-0.012,0.007-0.024,0.017-0.037,0.025c0.011,0.02,0.027,0.034,0.037,0.054V9.634z"/>
	<path fill="none" d="M28.269,9.659c-0.013-0.008-0.024-0.018-0.037-0.025v0.079C28.241,9.693,28.257,9.679,28.269,9.659z"/>
	<path fill="none" d="M11.95,28.262c0.43,0.046,0.784,0.305,0.972,0.66c0.442,0.271,0.751,0.896,0.751,1.623
		c0,0.342-0.071,0.66-0.189,0.93c0.426,0.219,0.793,0.707,0.939,1.338c0.124,0.539,0.056,1.055-0.143,1.434
		c0.525,0.129,1.01,0.682,1.185,1.43c0.118,0.516,0.062,1.012-0.119,1.385c0.586-0.033,1.225,0.477,1.526,1.264
		c0.162,0.43,0.191,0.861,0.114,1.227c0.536,0.002,1.135,0.412,1.487,1.082c0.201,0.381,0.285,0.781,0.267,1.139
		c0.391,0.084,0.801,0.326,1.131,0.703c0.258,0.293,0.423,0.623,0.502,0.943c0.339-0.084,0.734-0.082,1.138,0.031
		c0.774,0.221,1.318,0.771,1.382,1.33c0.396-0.273,1.008-0.363,1.638-0.186c0.555,0.158,0.987,0.488,1.217,0.865
		c0.308-0.201,0.709-0.33,1.158-0.338c0.537-0.012,1.015,0.15,1.345,0.41c0.33-0.26,0.808-0.422,1.345-0.41
		c0.448,0.008,0.851,0.137,1.158,0.338c0.229-0.377,0.662-0.707,1.217-0.865c0.63-0.178,1.241-0.088,1.638,0.186
		c0.063-0.559,0.607-1.109,1.381-1.33c0.404-0.113,0.799-0.115,1.137-0.031c0.081-0.32,0.246-0.65,0.504-0.943
		c0.33-0.377,0.74-0.619,1.13-0.703c-0.018-0.357,0.065-0.758,0.267-1.139c0.354-0.67,0.952-1.08,1.487-1.082
		c-0.076-0.365-0.047-0.797,0.115-1.227c0.302-0.787,0.94-1.297,1.526-1.264c-0.181-0.373-0.237-0.869-0.119-1.385
		c0.175-0.748,0.659-1.301,1.185-1.43c-0.199-0.379-0.267-0.895-0.144-1.434c0.146-0.631,0.515-1.119,0.94-1.338
		c-0.118-0.27-0.189-0.588-0.189-0.93c0-0.727,0.309-1.352,0.751-1.623c0.187-0.355,0.542-0.614,0.971-0.66
		c0.341-0.038,0.661,0.065,0.908,0.26c0.229-2.078,0.284-3.777,0.284-4.641c0-2.266-3.717-8.092-7.127-11.645
		c-0.015,0.887-0.736,1.602-1.627,1.602c-0.9,0-1.631-0.729-1.631-1.63v-0.234c-0.298,0.646-0.946,1.097-1.705,1.097
		c-0.637,0-1.197-0.319-1.537-0.803c-0.37,0.681-1.083,1.148-1.913,1.148c-0.858,0-1.594-0.499-1.951-1.22
		c-0.357,0.721-1.093,1.22-1.951,1.22c-0.83,0-1.544-0.468-1.913-1.148c-0.341,0.484-0.9,0.803-1.538,0.803
		c-0.758,0-1.407-0.451-1.704-1.098v0.234c0,0.901-0.73,1.63-1.632,1.63c-0.89,0-1.612-0.715-1.627-1.602
		c-3.409,3.553-7.126,9.379-7.126,11.645c0,0.863,0.054,2.563,0.284,4.641C11.29,28.328,11.61,28.224,11.95,28.262z M19.371,21.592
		c2.349,0.207,8.81,1.854,8.879,1.871c0.069-0.017,6.53-1.664,8.878-1.871c2.359-0.209,6.732-0.14,5.274,6.593
		c-1.442,6.661-13.878,6.665-14.146,6.663c0,0-0.01,0-0.012,0c-0.27,0.002-12.706-0.002-14.148-6.663
		C12.639,21.453,17.013,21.383,19.371,21.592z"/>
	<path fill="#18A9FA" d="M28.245,34.848c0.002,0,0.012,0,0.012,0c0.269,0.002,12.705-0.002,14.147-6.663
		c1.458-6.732-2.915-6.802-5.274-6.593c-2.348,0.207-8.809,1.854-8.878,1.871c-0.069-0.017-6.53-1.664-8.878-1.871
		c-2.359-0.209-6.733-0.14-5.275,6.593C15.539,34.846,27.975,34.85,28.245,34.848z"/>
	<path fill="#18A9FA" d="M19.513,14.838c0.901,0,1.631-0.729,1.631-1.63v-0.234c0.297,0.646,0.947,1.098,1.705,1.098
		c0.637,0,1.197-0.319,1.538-0.803c0.369,0.681,1.083,1.148,1.913,1.148c0.858,0,1.593-0.499,1.951-1.22
		c0.357,0.721,1.093,1.22,1.951,1.22c0.83,0,1.543-0.468,1.914-1.148c0.34,0.484,0.9,0.803,1.537,0.803
		c0.758,0,1.406-0.451,1.705-1.097v0.234c0,0.901,0.73,1.63,1.631,1.63c0.891,0,1.611-0.715,1.627-1.602
		c-0.666-0.693-1.32-1.31-1.932-1.785c-0.387-0.3-0.756-0.559-1.115-0.792c-0.012,0.02-0.027,0.034-0.037,0.054v-0.079
		c-2.836-1.824-4.947-1.717-7.281-1.717c-2.333,0-4.445-0.107-7.281,1.717v0.079c-0.01-0.02-0.026-0.035-0.037-0.054
		c-0.36,0.233-0.729,0.492-1.115,0.792c-0.612,0.476-1.267,1.092-1.932,1.785C17.9,14.124,18.623,14.838,19.513,14.838z"/>
	<path fill="#18A9FA" d="M44.549,27.262c-0.429,0.046-0.784,0.305-0.971,0.66c-0.442,0.271-0.751,0.896-0.751,1.623
		c0,0.342,0.071,0.66,0.189,0.93c-0.426,0.219-0.794,0.707-0.94,1.338c-0.123,0.539-0.056,1.055,0.144,1.434
		c-0.525,0.129-1.01,0.682-1.185,1.43c-0.118,0.516-0.062,1.012,0.119,1.385c-0.586-0.033-1.225,0.477-1.526,1.264
		c-0.162,0.43-0.191,0.861-0.115,1.227c-0.535,0.002-1.134,0.412-1.487,1.082c-0.201,0.381-0.284,0.781-0.267,1.139
		c-0.39,0.084-0.8,0.326-1.13,0.703c-0.258,0.293-0.423,0.623-0.504,0.943c-0.338-0.084-0.732-0.082-1.137,0.031
		c-0.773,0.221-1.317,0.771-1.381,1.33c-0.396-0.273-1.008-0.363-1.638-0.186c-0.555,0.158-0.987,0.488-1.217,0.865
		c-0.308-0.201-0.71-0.33-1.158-0.338c-0.537-0.012-1.015,0.15-1.345,0.41c-0.33-0.26-0.808-0.422-1.345-0.41
		c-0.449,0.008-0.851,0.137-1.158,0.338c-0.229-0.377-0.662-0.707-1.216-0.865c-0.63-0.178-1.242-0.088-1.638,0.186
		c-0.063-0.559-0.607-1.109-1.381-1.33c-0.403-0.113-0.799-0.115-1.138-0.031c-0.08-0.32-0.245-0.65-0.502-0.943
		c-0.33-0.377-0.74-0.619-1.13-0.703c0.018-0.357-0.065-0.758-0.267-1.139c-0.353-0.67-0.952-1.08-1.487-1.082
		c0.077-0.365,0.047-0.797-0.115-1.227c-0.301-0.787-0.94-1.297-1.526-1.264c0.181-0.373,0.238-0.869,0.119-1.385
		c-0.174-0.748-0.659-1.301-1.185-1.43c0.198-0.379,0.267-0.895,0.143-1.434c-0.146-0.631-0.514-1.119-0.94-1.338
		c0.119-0.27,0.19-0.588,0.19-0.93c0-0.727-0.309-1.352-0.751-1.623c-0.187-0.355-0.542-0.614-0.971-0.66
		c-0.34-0.038-0.661,0.065-0.908,0.26c0.493,4.443,1.796,10.625,5.13,14.099c4.219,4.4,8.676,5.777,12.077,5.777
		c3.4,0,7.857-1.377,12.077-5.777c3.334-3.475,4.637-9.656,5.13-14.099C45.21,27.328,44.89,27.224,44.549,27.262z"/>
	<path fill="#18A9FA" d="M36.787,2.851c-2.125-0.193-5.483,1.387-8.537,1.387c-3.054,0-6.412-1.581-8.537-1.387
		C17.422,3.059,7.428,20.411,7.428,24.506c0,4.095,0.521,15.929,5.518,22.8c4.415,6.07,13.293,6.371,15.305,6.359
		c2.012,0.012,10.891-0.289,15.305-6.359c4.997-6.871,5.518-18.706,5.518-22.8C49.072,20.411,39.078,3.059,36.787,2.851z
		 M17.885,12.236c0.666-0.693,1.32-1.31,1.932-1.785c0.386-0.3,0.755-0.559,1.115-0.792c0.013-0.008,0.025-0.018,0.037-0.025
		c2.836-1.824,4.949-1.717,7.281-1.717c2.333,0,4.445-0.107,7.281,1.717c0.013,0.007,0.024,0.017,0.037,0.025
		c0.359,0.233,0.729,0.492,1.114,0.792c0.612,0.476,1.267,1.092,1.932,1.785c3.41,3.553,7.127,9.379,7.127,11.645
		c0,0.863-0.055,2.563-0.284,4.641c-0.493,4.443-1.796,10.625-5.13,14.099c-4.22,4.4-8.677,5.777-12.077,5.777
		c-3.401,0-7.857-1.377-12.077-5.777c-3.334-3.475-4.637-9.656-5.13-14.099c-0.23-2.078-0.284-3.777-0.284-4.641
		C10.759,21.616,14.476,15.789,17.885,12.236z"/>
</g>
</svg>
