<?xml version="1.0" encoding="utf-8"?>
<!-- Generator: Adobe Illustrator 16.0.0, SVG Export Plug-In . SVG Version: 6.00 Build 0)  -->
<!DOCTYPE svg PUBLIC "-//W3C//DTD SVG 1.1//EN" "http://www.w3.org/Graphics/SVG/1.1/DTD/svg11.dtd">
<svg version="1.1" id="Layer_1" xmlns="http://www.w3.org/2000/svg" xmlns:xlink="http://www.w3.org/1999/xlink" x="0px" y="0px"
	 width="56.5px" height="56.5px" viewBox="0 0 56.5 56.5" enable-background="new 0 0 56.5 56.5" xml:space="preserve">
<g>
	<path fill="#19A9FA" d="M15.164,23.062h26.172c0.144-0.457,0.3-0.938,0.462-1.431c1.682-5.142,4.224-12.912-1.372-16.444
		c-1.912-1.206-3.769-1.793-5.676-1.793c-2.056,0-3.734,0.712-4.959,1.231C29.229,4.863,28.529,5.16,28.25,5.16
		s-0.979-0.297-1.54-0.535c-1.226-0.52-2.904-1.231-4.96-1.231c-1.907,0-3.763,0.587-5.676,1.793
		c-5.595,3.532-3.054,11.303-1.371,16.444C14.863,22.123,15.021,22.604,15.164,23.062z"/>
	<path fill="#FFFFFF" d="M35.442,6.079c4.669-1.308,7.284,10.646,4.296,12.514C38.244,10.935,30.772,7.387,35.442,6.079z"/>
	<path fill="#19A9FA" d="M42.876,24.862H13.624c-1.751,0-3.17,1.42-3.17,3.171s1.419,3.17,3.17,3.17h10.735v1.44h-5.417
		c-1.114,0-2.018,0.903-2.018,2.018s0.903,2.019,2.018,2.019h5.417v1.439h-3.688c-1.115,0-2.019,0.903-2.019,2.018
		c0,1.115,0.903,2.018,2.019,2.018h3.688v1.44h-1.958c-1.115,0-2.019,0.903-2.019,2.019c0,1.114,0.903,2.018,2.019,2.018h1.958v1.44
		H24.13c-1.114,0-2.018,0.903-2.018,2.017c0,1.115,0.903,2.019,2.018,2.019h8.24c1.114,0,2.018-0.903,2.018-2.019
		c0-1.113-0.903-2.017-2.018-2.017h-0.229v-1.44H34.1c1.113,0,2.018-0.903,2.018-2.018c0-1.115-0.904-2.019-2.018-2.019h-1.959
		v-1.44h3.688c1.114,0,2.019-0.902,2.019-2.018c0-1.114-0.904-2.018-2.019-2.018h-3.688V36.68h5.417
		c1.114,0,2.018-0.904,2.018-2.019s-0.903-2.018-2.018-2.018h-5.417v-1.44h10.735c1.751,0,3.17-1.419,3.17-3.17
		S44.627,24.862,42.876,24.862z"/>
</g>
</svg>
