<?xml version="1.0" encoding="utf-8"?>
<!-- Generator: Adobe Illustrator 16.0.0, SVG Export Plug-In . SVG Version: 6.00 Build 0)  -->
<!DOCTYPE svg PUBLIC "-//W3C//DTD SVG 1.1//EN" "http://www.w3.org/Graphics/SVG/1.1/DTD/svg11.dtd">
<svg version="1.1" id="Layer_1" xmlns="http://www.w3.org/2000/svg" xmlns:xlink="http://www.w3.org/1999/xlink" x="0px" y="0px"
	 width="56.5px" height="56.5px" viewBox="0 0 56.5 56.5" enable-background="new 0 0 56.5 56.5" xml:space="preserve">
<g>
	<path fill="#18A9FA" d="M20.588,9.972c1.428-0.514,1.098-3.766,1.098-3.766c0-2.472,2.109-4.479,4.71-4.479
		c2.593,0,4.707,2.007,4.707,4.479c0,2.483-2.113,4.493-4.707,4.493c-0.872,0-1.646-0.294-2.342-0.677
		C22.106,10.156,19.706,10.288,20.588,9.972z M34.789,31.862c0.033,3.291-0.132,5.669-0.132,5.669h-5.977l-0.966,16.868
		c0,0.587-0.496,1.077-1.13,1.077c-0.617,0-1.125-0.49-1.125-1.077L24.49,37.531h-2.47l1.599-18.923l-3.342,13.333
		c-0.162,0.66-0.782,1.112-1.47,1.112c-0.108,0-0.226-0.015-0.341-0.036c-0.807-0.182-1.315-0.955-1.128-1.725
		c0,0,2.471-13.455,3.647-15.749v-0.007c0-0.003,0.003-0.003,0.003-0.003c1.173-2.297,1.334-3.68,5.664-3.68
		c3.199,0,5.146,2.698,6.347,6.327c3.523,0.632,6.203,3.569,6.203,7.117C39.204,28.211,37.392,30.708,34.789,31.862z M37.175,24.373
		c0-0.906-0.773-1.641-1.729-1.641c-0.785,0-1.336,0.549-1.549,1.245c-0.213-0.691-0.764-1.245-1.55-1.245
		c-0.957,0-1.728,0.735-1.728,1.641c0,1.911,3.275,3.609,3.275,3.609S37.175,26.287,37.175,24.373z"/>
</g>
</svg>
