<?xml version="1.0" encoding="utf-8"?>
<!-- Generator: Adobe Illustrator 16.0.0, SVG Export Plug-In . SVG Version: 6.00 Build 0)  -->
<!DOCTYPE svg PUBLIC "-//W3C//DTD SVG 1.1//EN" "http://www.w3.org/Graphics/SVG/1.1/DTD/svg11.dtd">
<svg version="1.1" id="Layer_1" xmlns="http://www.w3.org/2000/svg" xmlns:xlink="http://www.w3.org/1999/xlink" x="0px" y="0px"
	 width="56.5px" height="56.5px" viewBox="0 0 56.5 56.5" enable-background="new 0 0 56.5 56.5" xml:space="preserve">
<g>
	<path fill="#18A9FA" d="M46.689,23.867c2.289-5.871,5.748-14.744-1.866-18.776c-2.604-1.377-5.131-2.047-7.726-2.047
		c-2.799,0-5.083,0.813-6.751,1.406C29.582,4.721,28.63,5.06,28.25,5.06s-1.332-0.339-2.096-0.611
		c-1.668-0.593-3.953-1.406-6.751-1.406c-2.595,0-5.123,0.67-7.726,2.047C4.062,9.123,7.521,17.996,9.811,23.867
		c0.708,1.816,1.376,3.531,1.477,4.458c0.177,1.63-0.02,3.716-0.229,5.924c-0.331,3.508-0.673,7.135,0.32,10.193
		c1.683,5.18,7.045,8.943,7.273,9.101c0.499,0.346,1.104,0.535,1.721,0.562c0.054,0.002,0.109,0.005,0.164,0.005
		c1.625,0,2.942-1.106,2.942-2.47c0-0.224-0.036-0.441-0.103-0.649c-0.251-1.241-1.534-8.241,0.399-12.706
		c1.442-3.331,3.564-5.081,4.474-5.545c0.909,0.464,3.031,2.214,4.474,5.545c2.117,4.89,0.378,12.819,0.359,12.899
		c-0.229,1.021,0.327,2.052,1.395,2.581c0.464,0.23,0.981,0.345,1.496,0.345c0.669,0,1.335-0.191,1.874-0.566
		c0.228-0.157,5.592-3.921,7.273-9.101c0.993-3.059,0.65-6.688,0.319-10.197c-0.208-2.206-0.404-4.291-0.228-5.921
		C45.313,27.398,45.98,25.683,46.689,23.867z"/>
	<path fill="#FFFFFF" d="M38.039,6.109c6.356-1.493,9.915,12.156,5.847,14.29C41.853,11.654,31.685,7.603,38.039,6.109z"/>
</g>
</svg>
